<?xml version="1.0" encoding="UTF-8" standalone="no"?>
<svg
   xmlns:dc="http://purl.org/dc/elements/1.1/"
   xmlns:cc="http://creativecommons.org/ns#"
   xmlns:rdf="http://www.w3.org/1999/02/22-rdf-syntax-ns#"
   xmlns:svg="http://www.w3.org/2000/svg"
   xmlns="http://www.w3.org/2000/svg"
   xmlns:sodipodi="http://sodipodi.sourceforge.net/DTD/sodipodi-0.dtd"
   xmlns:inkscape="http://www.inkscape.org/namespaces/inkscape"
   height="280.8587"
   width="2223.2869"
   xml:space="preserve"
   viewBox="0 0 2223.2868 280.8587"
   y="0px"
   x="0px"
   id="Layer_1"
   version="1.1"
   sodipodi:docname="gqlhospital-landscape-logo.svg"
   inkscape:version="0.92.4 (5da689c313, 2019-01-14)"><sodipodi:namedview
   pagecolor="#ffffff"
   bordercolor="#666666"
   borderopacity="1"
   objecttolerance="10"
   gridtolerance="10"
   guidetolerance="10"
   inkscape:pageopacity="0"
   inkscape:pageshadow="2"
   inkscape:window-width="1920"
   inkscape:window-height="1018"
   id="namedview79"
   showgrid="false"
   inkscape:zoom="1.7565046"
   inkscape:cx="178.03993"
   inkscape:cy="103.06722"
   inkscape:window-x="0"
   inkscape:window-y="32"
   inkscape:window-maximized="1"
   inkscape:current-layer="Layer_1"
   fit-margin-top="0"
   fit-margin-left="0"
   fit-margin-right="0"
   fit-margin-bottom="0" /><metadata
   id="metadata61"><rdf:RDF><cc:Work
       rdf:about=""><dc:format>image/svg+xml</dc:format><dc:type
         rdf:resource="http://purl.org/dc/dcmitype/StillImage" /><dc:title /></cc:Work></rdf:RDF></metadata><defs
   id="defs59">
	

		
	
			
			
			
			
			
			
			
			
			
		</defs>

<g
   transform="translate(-240.27949,0.7014)"
   id="g26">
</g>
<g
   transform="translate(-240.27949,0.7014)"
   id="g28">
</g>
<g
   transform="translate(-240.27949,0.7014)"
   id="g30">
</g>
<g
   transform="translate(-240.27949,0.7014)"
   id="g32">
</g>
<g
   transform="translate(-240.27949,0.7014)"
   id="g34">
</g>
<g
   transform="translate(-240.27949,0.7014)"
   id="g36">
</g>
<g
   transform="translate(-240.27949,0.7014)"
   id="g38">
</g>
<g
   transform="translate(-240.27949,0.7014)"
   id="g40">
</g>
<g
   transform="translate(-240.27949,0.7014)"
   id="g42">
</g>
<g
   transform="translate(-240.27949,0.7014)"
   id="g44">
</g>
<g
   transform="translate(-240.27949,0.7014)"
   id="g46">
</g>
<g
   transform="translate(-240.27949,0.7014)"
   id="g48">
</g>
<g
   transform="translate(-240.27949,0.7014)"
   id="g50">
</g>
<g
   transform="translate(-240.27949,0.7014)"
   id="g52">
</g>
<g
   transform="translate(-240.27949,0.7014)"
   id="g54">
</g>
<g
   transform="translate(-240.27949,0.7014)"
   id="text96"
   style="font-style:normal;font-weight:normal;font-size:40px;line-height:1.25;font-family:sans-serif;letter-spacing:0px;word-spacing:0px;fill:#0087bf;fill-opacity:0.94117647;stroke:none"
   aria-label="GQL"><path
     id="path5309"
     style="font-style:normal;font-variant:normal;font-weight:normal;font-stretch:normal;font-size:233.33332825px;font-family:'Keep Calm';-inkscape-font-specification:'Keep Calm';fill:#0087bf;fill-opacity:0.94117647"
     d="m 769.00455,198.31017 q -7.93333,9.8 -17.26667,17.03333 -9.33333,7 -19.6,11.66667 -10.03333,4.66667 -20.76666,6.76667 -10.5,2.33333 -21,2.33333 -20.76667,0 -38.96667,-7.46667 -18.2,-7.46666 -31.73333,-20.53333 -13.53333,-13.06667 -21.46667,-30.8 -7.93333,-17.73333 -7.93333,-38.26667 0,-20.06666 7.7,-37.56666 7.93333,-17.733335 21.46667,-30.800001 13.76666,-13.066667 31.96666,-20.533333 18.2,-7.7 38.96667,-7.7 24.03333,0 43.63333,9.8 19.83333,9.8 33.6,26.133332 l -24.5,24.966662 q -10.5,-14.233328 -23.56667,-20.299995 -13.06666,-6.3 -29.16666,-6.3 -13.3,0 -24.96667,4.9 -11.66667,4.9 -20.53333,13.533333 -8.63333,8.400002 -13.76667,19.833332 -4.9,11.2 -4.9,24.03333 0,13.06667 4.9,24.5 5.13334,11.2 13.76667,19.83334 8.86666,8.63333 20.53333,13.53333 11.66667,4.9 24.96667,4.9 12.6,0 23.8,-4.66667 11.2,-4.66666 20.06666,-12.36666 v -17.96667 h -38.26666 v -30.8 h 73.03333 z"
     inkscape:connector-curvature="0" /><path
     id="path5311"
     style="font-style:normal;font-variant:normal;font-weight:normal;font-stretch:normal;font-size:233.33332825px;font-family:'Keep Calm';-inkscape-font-specification:'Keep Calm';fill:#0087bf;fill-opacity:0.94117647"
     d="m 986.58059,139.27684 q 0,16.56666 -5.36667,31.5 -5.13333,14.7 -14.93333,27.06666 l 18.66667,18.43334 -21.46667,21.46666 -19.13333,-19.36666 q -11.9,8.16666 -26.13333,12.83333 -14.23334,4.66667 -30.1,4.66667 -20.3,0 -38.26667,-7.46667 -17.73333,-7.7 -31.26667,-20.76667 -13.3,-13.3 -21,-30.8 -7.7,-17.5 -7.7,-37.56666 0,-20.06667 7.7,-37.56667 7.7,-17.733332 21,-30.799998 13.53334,-13.3 31.26667,-20.766666 17.96667,-7.7 38.26667,-7.7 20.3,0 38.26666,7.7 17.96667,7.466666 31.26667,20.766666 13.53333,13.066666 21.23333,30.799998 7.7,17.5 7.7,37.56667 z m -35.23333,0 q 0,-12.83334 -5.13334,-24.26667 -4.9,-11.43333 -13.53333,-20.066665 -8.4,-8.633333 -20.06666,-13.533333 -11.43334,-5.133333 -24.5,-5.133333 -13.06667,0 -24.5,5.133333 -11.43334,4.9 -20.06667,13.533333 -8.63333,8.633335 -13.53333,20.066665 -4.9,11.43333 -4.9,24.26667 0,12.83333 4.9,24.26666 4.9,11.43334 13.53333,20.06667 8.63333,8.4 20.06667,13.53333 11.43333,4.9 24.5,4.9 8.86666,0 16.8,-2.33333 8.16666,-2.33333 15.4,-6.53333 l -17.5,-17.03334 21.46666,-21.46666 17.26667,17.73333 q 9.8,-15.16667 9.8,-33.13333 z"
     inkscape:connector-curvature="0" /><path
     id="path5313"
     style="font-style:normal;font-variant:normal;font-weight:normal;font-stretch:normal;font-size:233.33332825px;font-family:'Keep Calm';-inkscape-font-specification:'Keep Calm';fill:#0087bf;fill-opacity:0.94117647"
     d="M 1140.9525,232.61017 H 1014.7191 V 46.176839 h 36.8667 V 197.61017 h 89.3667 z"
     inkscape:connector-curvature="0" /></g><path
   inkscape:connector-curvature="0"
   d="m 1141.0337,234.94964 h -36.1177 v -82.48818 h -73.4005 v 82.48818 H 995.39779 V 48.768691 h 36.11771 v 73.866539 h 73.4005 V 48.768691 h 36.1177 z"
   style="font-style:normal;font-variant:normal;font-weight:normal;font-stretch:normal;font-size:200px;line-height:1.25;font-family:'Keep Calm';-inkscape-font-specification:'Keep Calm';letter-spacing:0px;word-spacing:0px;fill:#000000;fill-opacity:1;stroke:none;stroke-width:1.16508734"
   id="path5292" /><path
   inkscape:connector-curvature="0"
   d="m 1519.4177,186.01597 q 0,10.48579 -4.6604,20.03951 -4.4273,9.32069 -12.5829,16.54424 -8.1556,7.22354 -19.3405,11.65087 -11.1848,4.19431 -24.6998,4.19431 -12.117,0 -21.9037,-1.3981 -9.5537,-1.39811 -18.1754,-4.42733 -8.3886,-3.02923 -16.3112,-7.68958 -7.6895,-4.89337 -16.0782,-11.65087 l 25.6319,-25.86494 q 11.1849,9.3207 21.9037,13.28199 10.7188,3.72828 23.3017,3.72828 5.1264,0 9.5537,-1.3981 4.6604,-1.63112 7.9227,-4.19431 3.4952,-2.5632 5.3594,-6.05846 2.0971,-3.49526 2.0971,-7.68958 0,-4.42733 -1.6311,-7.92259 -1.6311,-3.49526 -5.8254,-6.75751 -4.1944,-3.26224 -11.6509,-6.52448 -7.4566,-3.49527 -19.1075,-7.68958 -10.2527,-3.72828 -19.8064,-8.38863 -9.3207,-4.89337 -16.5443,-11.65087 -6.9905,-6.75751 -11.4178,-15.84519 -4.1944,-9.08768 -4.1944,-21.437605 0,-11.883891 4.6604,-21.903642 4.8934,-10.01975 13.049,-17.010274 8.3886,-7.223541 19.3404,-11.184838 11.1849,-3.961297 24.0008,-3.961297 21.4376,0 36.1177,5.592419 14.6801,5.592419 26.098,16.311222 l -25.1659,25.398903 q -6.9905,-6.757506 -15.6122,-10.252768 -8.6216,-3.728279 -20.2725,-3.728279 -5.3594,0 -10.0197,1.631122 -4.4274,1.631122 -7.6896,4.427332 -3.2623,2.563192 -5.3594,6.291471 -1.8642,3.495262 -1.8642,7.456559 0,4.427335 1.8642,8.155615 1.8641,3.49526 6.2914,6.99052 4.4274,3.26224 11.6509,6.75751 7.4566,3.26224 18.4084,7.22354 13.9811,4.89336 24.0008,10.7188 10.0198,5.82544 16.3112,12.81596 6.2915,6.99052 9.3207,15.84519 3.0293,8.62164 3.0293,19.57346 z"
   style="font-style:normal;font-variant:normal;font-weight:normal;font-stretch:normal;font-size:200px;line-height:1.25;font-family:'Keep Calm';-inkscape-font-specification:'Keep Calm';letter-spacing:0px;word-spacing:0px;fill:#000000;fill-opacity:1;stroke:none;stroke-width:1.16508734"
   id="path5296" /><path
   inkscape:connector-curvature="0"
   d="m 1675.6631,111.21737 q 0,13.282 -5.1264,24.93287 -4.8934,11.41785 -13.515,20.0395 -8.6217,8.38863 -20.2725,13.282 -11.6509,4.66034 -24.6999,4.66034 h -30.7583 v 60.81756 h -36.1177 V 48.768691 h 66.876 q 13.049,0 24.6999,4.893366 11.6508,4.66035 20.2725,13.048978 8.6216,8.388629 13.515,19.806484 5.1264,11.417856 5.1264,24.699851 z m -35.8847,-0.46603 q 0,-7.22355 -2.7962,-13.515018 -2.5632,-6.291471 -7.2236,-10.95182 -4.6603,-4.660349 -10.9518,-7.456559 -6.2914,-2.796209 -13.515,-2.796209 h -24.0008 v 70.371276 h 24.0008 q 7.2236,0 13.515,-2.79621 6.2915,-3.02923 10.9518,-7.9226 4.6604,-4.89336 7.2236,-11.18483 2.7962,-6.52449 2.7962,-13.74803 z"
   style="font-style:normal;font-variant:normal;font-weight:normal;font-stretch:normal;font-size:200px;line-height:1.25;font-family:'Keep Calm';-inkscape-font-specification:'Keep Calm';letter-spacing:0px;word-spacing:0px;fill:#000000;fill-opacity:1;stroke:none;stroke-width:1.16508734"
   id="path5298" /><path
   inkscape:connector-curvature="0"
   d="m 1735.119,234.94964 h -36.1177 V 48.768691 h 36.1177 z"
   style="font-style:normal;font-variant:normal;font-weight:normal;font-stretch:normal;font-size:200px;line-height:1.25;font-family:'Keep Calm';-inkscape-font-specification:'Keep Calm';letter-spacing:0px;word-spacing:0px;fill:#000000;fill-opacity:1;stroke:none;stroke-width:1.16508734"
   id="path5300" /><path
   inkscape:connector-curvature="0"
   d="m 1897.9254,80.9251 h -51.4969 v 154.02454 h -36.5837 V 80.9251 h -51.4969 V 48.768691 h 139.5775 z"
   style="font-style:normal;font-variant:normal;font-weight:normal;font-stretch:normal;font-size:200px;line-height:1.25;font-family:'Keep Calm';-inkscape-font-specification:'Keep Calm';letter-spacing:0px;word-spacing:0px;fill:#000000;fill-opacity:1;stroke:none;stroke-width:1.16508734"
   id="path5302" /><path
   inkscape:connector-curvature="0"
   d="m 2078.6486,234.94964 h -39.613 l -17.2433,-37.28279 h -90.4107 l -17.4763,37.28279 h -39.613 l 88.0806,-186.413967 h 28.1951 z m -71.0703,-67.34204 -30.9913,-67.10903 -31.4574,67.10903 z"
   style="font-style:normal;font-variant:normal;font-weight:normal;font-stretch:normal;font-size:200px;line-height:1.25;font-family:'Keep Calm';-inkscape-font-specification:'Keep Calm';letter-spacing:0px;word-spacing:0px;fill:#000000;fill-opacity:1;stroke:none;stroke-width:1.16508734"
   id="path5304" /><path
   inkscape:connector-curvature="0"
   d="M 2223.287,234.94964 H 2097.2245 V 48.768691 h 36.8168 V 199.99702 h 89.2457 z"
   style="font-style:normal;font-variant:normal;font-weight:normal;font-stretch:normal;font-size:200px;line-height:1.25;font-family:'Keep Calm';-inkscape-font-specification:'Keep Calm';letter-spacing:0px;word-spacing:0px;fill:#000000;fill-opacity:1;stroke:none;stroke-width:1.16508734"
   id="path5306" /><path
   inkscape:connector-curvature="0"
   d="m 145.18211,27.224642 c 5.43944,-1.942423 9.36213,-7.087293 9.36213,-13.181707 C 154.54424,6.3006698 148.24357,0 140.50131,0 c -7.74226,0 -14.04293,6.3006698 -14.04293,14.042935 0,6.094414 3.92269,11.239284 9.36213,13.17677 V 276.1779 c 0,2.58368 2.09712,4.68079 4.6808,4.68079 2.58368,0 4.6808,-2.09711 4.6808,-4.68079 v -4.53105 z m -4.6808,-17.8625028 c 2.57929,0 4.6808,2.1015028 4.6808,4.6807958 0,2.579292 -2.10151,4.680795 -4.6808,4.680795 -2.57929,0 -4.6808,-2.101503 -4.6808,-4.680795 0,-2.579293 2.10151,-4.6807958 4.6808,-4.6807958 z"
   id="path18-3-6-7"
   style="stroke-width:0.54855216" /><path
   inkscape:connector-curvature="0"
   style="fill:#0087bf;fill-opacity:1;stroke-width:0.54855216"
   d="m 144.66976,77.11491 c 5.12567,-2.953953 9.36214,-7.629812 9.36214,-16.261828 0,-7.096619 -3.32368,-12.690205 -9.36214,-16.453821 l -9.36159,-3.829443 c -4.10976,-1.029632 -8.82346,-1.572699 -14.08956,-1.572699 -8.21018,0 -16.36002,1.422945 -20.76929,3.623187 -9.656707,4.83055 -25.993687,20.016119 -25.993687,46.318096 0,25.361758 24.135197,44.960978 25.160441,45.784908 l 35.692646,28.54939 v 33.52038 l -12.67156,15.22232 c -0.43994,0.43994 -10.73352,10.91619 -10.73352,26.71449 0,16.936 11.81472,22.84335 21.31235,27.59436 l 0.91279,0.4542 c 0.39331,0.19639 0.78662,0.39332 1.17939,0.5897 l 9.36159,4.2787 c 3.19696,1.22163 6.27708,2.05049 9.07195,2.05049 4.65282,0 7.30233,-2.20463 8.70223,-4.0538 5.71537,-7.53656 -0.67856,-16.37867 -5.60291,-20.61514 l -14.40827,-10.80373 28.65691,-28.67556 c 0.63687,-0.54307 15.70944,-13.41594 15.70944,-31.67176 0,-20.42753 -14.78238,-35.44908 -15.41432,-36.07608 l -26.71503,-26.71448 m 0,0 V 77.11491 m -9.36104,119.67817 V 163.2727 l 10.88217,8.71101 c 1.32914,1.41856 3.15966,4.13334 3.15966,5.89309 0,1.83491 -1.98466,4.70439 -3.59521,6.36595 z m 9.36104,-81.70629 -20.08085,-20.081401 c -1.33902,-1.362055 -3.32368,-4.231531 -3.34672,-5.860731 0.3604,-1.165673 3.73071,-3.833831 6.79656,-5.378554 2.04555,-1.025243 4.44712,-1.825581 6.9935,-2.673094 0.0883,-0.03237 9.54864,-3.950124 9.63751,-3.9781"
   id="path18-3-6" /><path
   inkscape:connector-curvature="0"
   style="fill:#ffffff;stroke-width:0.54855216"
   d="m 164.76487,202.65381 -32.76667,32.76666 c -0.95941,0.95942 -1.45585,2.28911 -1.36205,3.64184 0.0982,1.35273 0.7773,2.59794 1.86288,3.41254 l 18.47579,13.84162 c 1.69008,1.46024 5.36429,5.88377 4.00717,7.67205 -0.0845,0.11245 -0.26221,0.34613 -1.24028,0.34613 -3.59027,0 -9.87229,-3.15033 -15.41925,-5.926 l -0.92212,-0.46353 c -10.00339,-4.9995 -16.13511,-8.60349 -16.13511,-19.21523 0,-11.82404 7.92493,-20.02545 8.27601,-20.40889 l 23.11928,-27.77209 c 0.61767,-0.61767 6.05272,-6.23485 6.05272,-12.67156 0,-6.43671 -5.43451,-12.05333 -6.05272,-12.67155 -0.12178,-0.12178 -0.25289,-0.23862 -0.38399,-0.34614 l -46.8096,-37.44307 c -0.21064,-0.17334 -21.649706,-17.65186 -21.649706,-38.477639 0,-21.733635 13.083517,-34.077704 20.816456,-37.939511 2.62592,-1.315428 9.16521,-2.640181 16.58493,-2.640181 5.50472,0 23.4517,0.898528 23.4517,12.493274 0,6.511314 -3.64623,8.374197 -12.59641,11.356127 -2.74331,0.917727 -5.58426,1.862883 -8.2195,3.178311 -2.8042,1.404293 -11.95076,6.525576 -11.95076,13.551431 0,6.436163 5.43451,12.053338 6.05273,12.671558 l 18.52241,18.52241 c 0.15908,0.18267 0.31377,0.34175 0.49644,0.50083 l 27.79074,27.78636 c 0.12617,0.12616 12.67156,12.86354 12.67156,29.45724 -0.001,13.83723 -12.26069,24.40235 -12.67265,24.77701 z"
   id="path18-3" /><path
   inkscape:connector-curvature="0"
   style="fill:#a1dcf5;fill-opacity:1;stroke-width:0.54855216"
   d="m 165.9266,230.244 c -2.30776,-1.15141 -5.08344,-0.18266 -6.23485,2.13003 -0.71641,1.42788 -0.61767,3.05654 0.10752,4.36757 -0.79595,1.35767 -0.8892,3.08013 -0.0982,4.57328 0.84257,1.58203 2.46245,2.48111 4.13773,2.48111 0.73945,0 1.49316,-0.17774 2.1953,-0.54746 3.95561,-2.10644 4.51733,-4.97592 4.49868,-6.49705 -0.0422,-3.11852 -2.40595,-5.40708 -4.60619,-6.50748 z"
   id="path2" /><path
   inkscape:connector-curvature="0"
   style="fill:#a1dcf5;fill-opacity:1;stroke-width:0.54855216"
   d="m 157.01427,87.193678 c 1.76469,1.437206 2.14374,2.279782 2.13935,2.158004 -0.0236,1.834907 -1.98959,4.680795 -3.47782,6.202479 l -6.13226,6.810819 c -1.72739,1.91939 -1.5727,4.87773 0.34614,6.60951 0.89414,0.80527 2.01757,1.20297 3.13168,1.20297 1.28251,0 2.5557,-0.52441 3.48276,-1.54966 l 5.95892,-6.63309 c 0.61767,-0.61767 6.05272,-6.234842 6.05272,-12.671553 0,-3.248526 -1.82558,-6.319321 -5.57987,-9.38079 -2.00331,-1.633588 -4.95233,-1.334079 -6.58592,0.664845 -1.63413,2.003861 -1.33462,4.952877 0.6643,6.586466 z"
   id="path4" /><path
   inkscape:connector-curvature="0"
   style="fill:#a1dcf5;fill-opacity:1;stroke-width:0.54855216"
   d="m 114.14108,201.98973 c -5.09276,-5.43944 -11.15974,-13.96833 -11.15974,-23.72762 0,-5.82782 2.18159,-11.88493 6.48772,-18.00787 1.48877,-2.11577 0.97807,-5.03187 -1.13276,-6.52064 -2.11576,-1.48877 -5.0368,-0.98301 -6.52502,1.13276 -5.434511,7.73294 -8.191534,15.60192 -8.191534,23.39575 0,12.81637 7.442754,23.45664 13.686924,30.12703 0.92212,0.983 2.17172,1.4789 3.41693,1.4789 1.14702,0 2.29844,-0.41635 3.2019,-1.26387 1.88647,-1.76469 1.98466,-4.72797 0.21558,-6.61444 z"
   id="path6" /><path
   inkscape:connector-curvature="0"
   d="m 64.054432,108.28606 c -13.897568,4.63855 -21.888327,3.77733 -27.477525,-2.96767 L 32.036541,98.048976 51.879318,96.401125 C 54.453673,96.190481 56.36812,93.924961 56.157476,91.350606 55.941895,88.77625 53.6857,86.85193 51.102019,87.072448 l -24.650287,2.04555 -6.505828,-10.41097 32.378289,-5.842081 c 2.541991,-0.458589 4.231532,-2.893064 3.772942,-5.439443 -0.45859,-2.54199 -2.874413,-4.240856 -5.439443,-3.772941 L 14.604652,70.15894 13.438979,68.300445 C 10.410422,62.926828 9.3615907,60.852753 9.3615907,56.555944 c 0,-1.703803 2.4761643,-3.744965 5.7949043,-4.807511 L 117.86191,33.076267 c 2.54199,-0.463526 4.23153,-2.902389 3.76801,-5.443831 -0.46353,-2.541442 -2.89307,-4.222206 -5.44384,-3.768005 L 13.205295,42.58871 c -0.173342,0.03291 -0.341748,0.07515 -0.51509,0.121778 C 4.9803048,45.041286 0,50.471404 0,56.556493 0,63.208236 1.9100585,66.915351 5.3922674,73.080528 L 28.797341,110.52854 c 0.09819,0.15908 0.205707,0.31377 0.323097,0.4542 5.822881,7.22278 13.041279,9.59143 20.367192,9.59143 6.005549,0 12.086249,-1.59135 17.525692,-3.40322 2.452577,-0.81898 3.782267,-3.46849 2.963279,-5.92162 -0.820085,-2.44818 -3.459718,-3.7872 -5.922169,-2.96327 z"
   id="path8"
   style="stroke-width:0.54855216" /><path
   inkscape:connector-curvature="0"
   style="fill:#a1dcf5;fill-opacity:1;stroke-width:0.54855216"
   d="m 179.96953,43.005061 c -3.46411,-1.731779 -9.24036,-2.986318 -15.84493,-3.435582 -2.52279,-0.14043 -4.8119,1.769629 -4.99018,4.348373 -0.17773,2.579292 1.76963,4.811899 4.34838,4.990178 5.8887,0.402637 10.41974,1.530461 12.30183,2.476165 7.73294,3.861807 20.81645,16.205327 20.81645,37.939511 0,20.830174 -22.24872,38.950494 -22.47363,39.133164 -2.01264,1.61987 -2.34067,4.56395 -0.72573,6.57659 0.92705,1.15635 2.28417,1.75536 3.6561,1.75536 1.02524,0 2.05981,-0.33681 2.92104,-1.02524 1.05815,-0.84751 25.98436,-21.07866 25.98436,-46.439874 0,-26.302527 -16.33698,-41.488095 -25.99369,-46.318645 z"
   id="path10" /><path
   inkscape:connector-curvature="0"
   d="m 268.16849,42.70994 c -0.17335,-0.04663 -0.34175,-0.08887 -0.51509,-0.121779 L 164.67206,23.864431 c -2.55571,-0.449264 -4.98031,1.230951 -5.44383,3.768005 -0.46353,2.54199 1.22656,4.980305 3.768,5.443831 l 102.70542,18.672166 c 3.31874,1.062546 5.7949,3.103708 5.7949,4.807511 0,4.297357 -1.04828,6.370884 -3.96932,11.561833 L 266.2491,70.15894 230.201,63.652563 c -2.55571,-0.467915 -4.98031,1.230951 -5.43944,3.772941 -0.45859,2.546379 1.23095,4.980305 3.77294,5.439443 l 32.3739,5.842081 -6.50199,10.410422 -24.65029,-2.045551 c -2.57435,-0.219969 -4.83987,1.703803 -5.05545,4.278158 -0.21065,2.574355 1.7038,4.839876 4.27815,5.05052 l 19.84278,1.642913 -4.54037,7.27435 c -5.58426,6.74555 -13.57008,7.60677 -27.47752,2.96767 -2.46245,-0.82393 -5.10208,0.51509 -5.92162,2.96328 -0.81899,2.45257 0.51015,5.10208 2.96328,5.92162 5.43944,1.81131 11.52014,3.40321 17.52569,3.40321 7.32591,0 14.54376,-2.36864 20.36664,-9.59143 0.11685,-0.14043 0.22491,-0.29512 0.3231,-0.4542 l 23.51259,-37.630129 c 3.37524,-5.98251 5.28475,-9.689625 5.28475,-16.341368 5.5e-4,-6.085089 -4.97975,-11.515207 -12.68965,-13.846553 z"
   id="path12"
   style="stroke-width:0.54855216" /><path
   inkscape:connector-curvature="0"
   style="fill:#a1dcf5;fill-opacity:1;stroke-width:0.54855216"
   d="m 128.9092,170.43043 c -2.39662,-0.97807 -5.12567,0.17773 -6.09935,2.56997 -0.73506,1.80199 -1.10478,3.57162 -1.10478,5.26116 0,2.63086 0.89853,5.41585 2.67254,8.29027 0.88482,1.43227 2.41528,2.22328 3.98798,2.22328 0.83764,0 1.69009,-0.22491 2.45257,-0.69721 2.20025,-1.36206 2.88374,-4.24579 1.52608,-6.44549 -1.10918,-1.7976 -1.27813,-2.88374 -1.27813,-3.3703 0,-0.46792 0.14537,-1.06748 0.41196,-1.73672 0.97478,-2.39223 -0.17663,-5.12128 -2.56887,-6.09496 z"
   id="path14" /><path
   inkscape:connector-curvature="0"
   d="m 126.52684,65.918632 c 2.58862,0 4.6808,-2.097115 4.6808,-4.680796 0,-2.58368 -2.09218,-4.680795 -4.6808,-4.680795 h -0.0466 c -2.58368,0 -4.65775,2.097115 -4.65775,4.680795 0,2.583681 2.1207,4.680796 4.70438,4.680796 z"
   id="path16"
   style="stroke-width:0.54855216" /><g
   id="g5167"
   transform="matrix(0.49872319,0,0,0.49872319,1171.2992,41.050261)"
   style="fill:#0087bf;fill-opacity:1"><g
     id="g5105"
     style="fill:#0087bf;fill-opacity:1"><g
       id="g5103"
       style="fill:#0087bf;fill-opacity:1"><rect
         id="rect5101"
         height="320.29999"
         width="16.6"
         transform="matrix(-0.866,-0.5,0.5,-0.866,163.3196,363.3136)"
         y="-0.40000001"
         x="122"
         style="fill:#0087bf;fill-opacity:1" /></g></g><g
     id="g5111"
     style="fill:#0087bf;fill-opacity:1"><g
       id="g5109"
       style="fill:#0087bf;fill-opacity:1"><rect
         id="rect5107"
         height="16.6"
         width="320.29999"
         y="272.20001"
         x="39.799999"
         style="fill:#0087bf;fill-opacity:1" /></g></g><g
     id="g5117"
     style="fill:#0087bf;fill-opacity:1"><g
       id="g5115"
       style="fill:#0087bf;fill-opacity:1"><rect
         id="rect5113"
         height="16.6"
         width="185"
         transform="matrix(-0.866,-0.5,0.5,-0.866,83.0693,663.3409)"
         y="312.20001"
         x="37.900002"
         style="fill:#0087bf;fill-opacity:1" /></g></g><g
     id="g5123"
     style="fill:#0087bf;fill-opacity:1"><g
       id="g5121"
       style="fill:#0087bf;fill-opacity:1"><rect
         id="rect5119"
         height="16.6"
         width="185"
         transform="matrix(-0.866,-0.5,0.5,-0.866,463.3409,283.0693)"
         y="71.099998"
         x="177.10001"
         style="fill:#0087bf;fill-opacity:1" /></g></g><g
     id="g5129"
     style="fill:#0087bf;fill-opacity:1"><g
       id="g5127"
       style="fill:#0087bf;fill-opacity:1"><rect
         id="rect5125"
         height="185"
         width="16.6"
         transform="matrix(-0.5,-0.866,0.866,-0.5,126.7903,232.1221)"
         y="-13"
         x="122.1"
         style="fill:#0087bf;fill-opacity:1" /></g></g><g
     id="g5135"
     style="fill:#0087bf;fill-opacity:1"><g
       id="g5133"
       style="fill:#0087bf;fill-opacity:1"><rect
         id="rect5131"
         height="16.6"
         width="320.29999"
         transform="matrix(-0.5,-0.866,0.866,-0.5,266.0828,473.3766)"
         y="151.60001"
         x="109.6"
         style="fill:#0087bf;fill-opacity:1" /></g></g><g
     id="g5141"
     style="fill:#0087bf;fill-opacity:1"><g
       id="g5139"
       style="fill:#0087bf;fill-opacity:1"><rect
         id="rect5137"
         height="185"
         width="16.6"
         y="107.5"
         x="52.5"
         style="fill:#0087bf;fill-opacity:1" /></g></g><g
     id="g5147"
     style="fill:#0087bf;fill-opacity:1"><g
       id="g5145"
       style="fill:#0087bf;fill-opacity:1"><rect
         id="rect5143"
         height="185"
         width="16.6"
         y="107.5"
         x="330.89999"
         style="fill:#0087bf;fill-opacity:1" /></g></g><g
     id="g5153"
     style="fill:#0087bf;fill-opacity:1"><g
       id="g5151"
       style="fill:#0087bf;fill-opacity:1"><rect
         id="rect5149"
         height="160.89999"
         width="14.5"
         transform="matrix(-0.5,-0.866,0.866,-0.5,126.7953,714.2875)"
         y="240.10001"
         x="262.39999"
         style="fill:#0087bf;fill-opacity:1" /></g></g><path
     id="path5155"
     d="m 369.5,297.9 c -9.6,16.7 -31,22.4 -47.7,12.8 -16.7,-9.6 -22.4,-31 -12.8,-47.7 9.6,-16.7 31,-22.4 47.7,-12.8 16.8,9.7 22.5,31 12.8,47.7"
     style="fill:#0087bf;fill-opacity:1"
     inkscape:connector-curvature="0" /><path
     id="path5157"
     d="m 90.9,137 c -9.6,16.7 -31,22.4 -47.7,12.8 -16.7,-9.6 -22.4,-31 -12.8,-47.7 9.6,-16.7 31,-22.4 47.7,-12.8 16.7,9.7 22.4,31 12.8,47.7"
     style="fill:#0087bf;fill-opacity:1"
     inkscape:connector-curvature="0" /><path
     id="path5159"
     d="m 30.5,297.9 c -9.6,-16.7 -3.9,-38 12.8,-47.7 16.7,-9.6 38,-3.9 47.7,12.8 9.6,16.7 3.9,38 -12.8,47.7 -16.8,9.6 -38.1,3.9 -47.7,-12.8"
     style="fill:#0087bf;fill-opacity:1"
     inkscape:connector-curvature="0" /><path
     id="path5161"
     d="m 309.1,137 c -9.6,-16.7 -3.9,-38 12.8,-47.7 16.7,-9.6 38,-3.9 47.7,12.8 9.6,16.7 3.9,38 -12.8,47.7 -16.7,9.6 -38.1,3.9 -47.7,-12.8"
     style="fill:#0087bf;fill-opacity:1"
     inkscape:connector-curvature="0" /><path
     id="path5163"
     d="m 200,395.8 c -19.3,0 -34.9,-15.6 -34.9,-34.9 0,-19.3 15.6,-34.9 34.9,-34.9 19.3,0 34.9,15.6 34.9,34.9 0,19.2 -15.6,34.9 -34.9,34.9"
     style="fill:#0087bf;fill-opacity:1"
     inkscape:connector-curvature="0" /><path
     id="path5165"
     d="m 200,74 c -19.3,0 -34.9,-15.6 -34.9,-34.9 0,-19.3 15.6,-34.9 34.9,-34.9 19.3,0 34.9,15.6 34.9,34.9 0,19.3 -15.6,34.9 -34.9,34.9"
     style="fill:#0087bf;fill-opacity:1"
     inkscape:connector-curvature="0" /></g></svg>