<?xml version="1.0" encoding="UTF-8" standalone="no"?>
<svg
   xmlns:dc="http://purl.org/dc/elements/1.1/"
   xmlns:cc="http://creativecommons.org/ns#"
   xmlns:rdf="http://www.w3.org/1999/02/22-rdf-syntax-ns#"
   xmlns:svg="http://www.w3.org/2000/svg"
   xmlns="http://www.w3.org/2000/svg"
   xml:space="preserve"
   viewBox="0 0 511.99899 512"
   y="0px"
   x="0px"
   id="Layer_1"
   version="1.1"
   width="511.99899"
   height="512"><metadata
   id="metadata61"><rdf:RDF><cc:Work
       rdf:about=""><dc:format>image/svg+xml</dc:format><dc:type
         rdf:resource="http://purl.org/dc/dcmitype/StillImage" /><dc:title></dc:title></cc:Work></rdf:RDF></metadata><defs
   id="defs59" />

<g
   id="g26"
   transform="translate(-789.69592,-685.55932)">
</g>
<g
   id="g28"
   transform="translate(-789.69592,-685.55932)">
</g>
<g
   id="g30"
   transform="translate(-789.69592,-685.55932)">
</g>
<g
   id="g32"
   transform="translate(-789.69592,-685.55932)">
</g>
<g
   id="g34"
   transform="translate(-789.69592,-685.55932)">
</g>
<g
   id="g36"
   transform="translate(-789.69592,-685.55932)">
</g>
<g
   id="g38"
   transform="translate(-789.69592,-685.55932)">
</g>
<g
   id="g40"
   transform="translate(-789.69592,-685.55932)">
</g>
<g
   id="g42"
   transform="translate(-789.69592,-685.55932)">
</g>
<g
   id="g44"
   transform="translate(-789.69592,-685.55932)">
</g>
<g
   id="g46"
   transform="translate(-789.69592,-685.55932)">
</g>
<g
   id="g48"
   transform="translate(-789.69592,-685.55932)">
</g>
<g
   id="g50"
   transform="translate(-789.69592,-685.55932)">
</g>
<g
   id="g52"
   transform="translate(-789.69592,-685.55932)">
</g>
<g
   id="g54"
   transform="translate(-789.69592,-685.55932)">
</g>
<path
   style="fill:#ffffff"
   id="path18-3-6-7"
   d="m 264.66419,49.63 c 9.916,-3.541 17.067,-12.92 17.067,-24.03 0,-14.114 -11.486,-25.6 -25.6,-25.6 -14.114,0 -25.6,11.486 -25.6,25.6 0,11.11 7.151,20.489 17.067,24.021 v 453.846 c 0,4.71 3.823,8.533 8.533,8.533 4.71,0 8.533,-3.823 8.533,-8.533 v -8.26 z m -8.533,-32.563 c 4.702,0 8.533,3.831 8.533,8.533 0,4.702 -3.831,8.533 -8.533,8.533 -4.702,0 -8.533,-3.831 -8.533,-8.533 0,-4.702 3.831,-8.533 8.533,-8.533 z" /><path
   id="path18-3-6"
   d="m 263.73019,140.579 c 9.344,-5.385 17.067,-13.909 17.067,-29.645 0,-12.937 -6.059,-23.134 -17.067,-29.995 l -17.066,-6.981 c -7.492,-1.877 -16.085,-2.867 -25.685,-2.867 -14.967,0 -29.824,2.594 -37.862,6.605 -17.604,8.806 -47.386,36.489 -47.386,84.437 0,46.234 43.998,81.963 45.867,83.465 l 65.067,52.045 v 61.107 l -23.1,27.75 c -0.802,0.802 -19.567,19.9 -19.567,48.7 0,30.874 21.538,41.643 38.852,50.304 l 1.664,0.828 c 0.717,0.358 1.434,0.717 2.15,1.075 l 17.066,7.8 c 5.828,2.227 11.443,3.738 16.538,3.738 8.482,0 13.312,-4.019 15.864,-7.39 10.419,-13.739 -1.237,-29.858 -10.214,-37.581 l -26.266,-19.695 52.241,-52.275 c 1.161,-0.99 28.638,-24.457 28.638,-57.737 0,-37.239 -26.948,-64.623 -28.1,-65.766 l -48.701,-48.7 m 0,0 v -69.222 m -17.065,218.171 v -61.107 l 19.838,15.88 c 2.423,2.586 5.76,7.535 5.76,10.743 0,3.345 -3.618,8.576 -6.554,11.605 z m 17.065,-148.949 -36.607,-36.608 c -2.441,-2.483 -6.059,-7.714 -6.101,-10.684 0.657,-2.125 6.801,-6.989 12.39,-9.805 3.729,-1.869 8.107,-3.328 12.749,-4.873 0.161,-0.059 17.407,-7.201 17.569,-7.252"
   style="fill:#0087bf;fill-opacity:1" /><path
   id="path18-3"
   d="m 300.36319,369.434 -59.733,59.733 c -1.749,1.749 -2.654,4.173 -2.483,6.639 0.179,2.466 1.417,4.736 3.396,6.221 l 33.681,25.233 c 3.081,2.662 9.779,10.726 7.305,13.986 -0.154,0.205 -0.478,0.631 -2.261,0.631 -6.545,0 -17.997,-5.743 -28.109,-10.803 l -1.681,-0.845 c -18.236,-9.114 -29.414,-15.684 -29.414,-35.029 0,-21.555 14.447,-36.506 15.087,-37.205 l 42.146,-50.628 c 1.126,-1.126 11.034,-11.366 11.034,-23.1 0,-11.734 -9.907,-21.973 -11.034,-23.1 -0.222,-0.222 -0.461,-0.435 -0.7,-0.631 l -85.333,-68.258 c -0.384,-0.316 -39.467,-32.179 -39.467,-70.144 0,-39.62 23.851,-62.123 37.948,-69.163 4.787,-2.398 16.708,-4.813 30.234,-4.813 10.035,0 42.752,1.638 42.752,22.775 0,11.87 -6.647,15.266 -22.963,20.702 -5.001,1.673 -10.18,3.396 -14.984,5.794 -5.112,2.56 -21.786,11.896 -21.786,24.704 0,11.733 9.907,21.973 11.034,23.1 l 33.766,33.766 c 0.29,0.333 0.572,0.623 0.905,0.913 l 50.662,50.654 c 0.23,0.23 23.1,23.45 23.1,53.7 -0.002,25.225 -22.351,44.485 -23.102,45.168 z"
   style="fill:#ffffff" /><path
   id="path2"
   d="m 302.481,419.7304 c -4.207,-2.099 -9.267,-0.333 -11.366,3.883 -1.306,2.603 -1.126,5.572 0.196,7.962 -1.451,2.475 -1.621,5.615 -0.179,8.337 1.536,2.884 4.489,4.523 7.543,4.523 1.348,0 2.722,-0.324 4.002,-0.998 7.211,-3.84 8.235,-9.071 8.201,-11.844 -0.077,-5.685 -4.386,-9.857 -8.397,-11.863 z"
   style="fill:#a1dcf5;fill-opacity:1" /><path
   id="path4"
   d="m 286.234,158.9524 c 3.217,2.62 3.908,4.156 3.9,3.934 -0.043,3.345 -3.627,8.533 -6.34,11.307 l -11.179,12.416 c -3.149,3.499 -2.867,8.892 0.631,12.049 1.63,1.468 3.678,2.193 5.709,2.193 2.338,0 4.659,-0.956 6.349,-2.825 l 10.863,-12.092 c 1.126,-1.126 11.034,-11.366 11.034,-23.1 0,-5.922 -3.328,-11.52 -10.172,-17.101 -3.652,-2.978 -9.028,-2.432 -12.006,1.212 -2.979,3.653 -2.433,9.029 1.211,12.007 z"
   style="fill:#a1dcf5;fill-opacity:1" /><path
   id="path6"
   d="m 208.077,368.2234 c -9.284,-9.916 -20.344,-25.464 -20.344,-43.255 0,-10.624 3.977,-21.666 11.827,-32.828 2.714,-3.857 1.783,-9.173 -2.065,-11.887 -3.857,-2.714 -9.182,-1.792 -11.895,2.065 -9.907,14.097 -14.933,28.442 -14.933,42.65 0,23.364 13.568,42.761 24.951,54.921 1.681,1.792 3.959,2.696 6.229,2.696 2.091,0 4.19,-0.759 5.837,-2.304 3.439,-3.217 3.618,-8.619 0.393,-12.058 z"
   style="fill:#a1dcf5;fill-opacity:1" /><path
   style="fill:#ffffff"
   id="path8"
   d="m 116.77,197.4034 c -25.335,8.456 -39.902,6.886 -50.091,-5.41 l -8.277,-13.252 36.173,-3.004 c 4.693,-0.384 8.183,-4.514 7.799,-9.207 -0.393,-4.693 -4.506,-8.201 -9.216,-7.799 l -44.937,3.729 -11.86,-18.979 59.025,-10.65 c 4.634,-0.836 7.714,-5.274 6.878,-9.916 -0.836,-4.634 -5.24,-7.731 -9.916,-6.878 l -65.724,11.861 -2.125,-3.388 c -5.521,-9.796 -7.433,-13.577 -7.433,-21.41 0,-3.106 4.514,-6.827 10.564,-8.764 l 187.23,-34.039 c 4.634,-0.845 7.714,-5.291 6.869,-9.924 -0.845,-4.633 -5.274,-7.697 -9.924,-6.869 L 24.073,77.6384 c -0.316,0.06 -0.623,0.137 -0.939,0.222 C 9.079,82.1094 0,92.0084 0,103.1014 c 0,12.126 3.482,18.884 9.83,30.123 l 42.667,68.267 c 0.179,0.29 0.375,0.572 0.589,0.828 10.615,13.167 23.774,17.485 37.129,17.485 10.948,0 22.033,-2.901 31.949,-6.204 4.471,-1.493 6.895,-6.323 5.402,-10.795 -1.495,-4.463 -6.307,-6.904 -10.796,-5.402 z" /><path
   id="path10"
   d="m 328.081,78.3974 c -6.315,-3.157 -16.845,-5.444 -28.885,-6.263 -4.599,-0.256 -8.772,3.226 -9.097,7.927 -0.324,4.702 3.226,8.772 7.927,9.097 10.735,0.734 18.995,2.79 22.426,4.514 14.097,7.04 37.948,29.542 37.948,69.163 0,37.973 -40.559,71.006 -40.969,71.339 -3.669,2.953 -4.267,8.32 -1.323,11.989 1.69,2.108 4.164,3.2 6.665,3.2 1.869,0 3.755,-0.614 5.325,-1.869 1.929,-1.545 47.369,-38.426 47.369,-84.659 0,-47.949 -29.782,-75.632 -47.386,-84.438 z"
   style="fill:#a1dcf5;fill-opacity:1" /><path
   style="fill:#ffffff"
   id="path12"
   d="m 488.866,77.8594 c -0.316,-0.085 -0.623,-0.162 -0.939,-0.222 L 300.194,43.5044 c -4.659,-0.819 -9.079,2.244 -9.924,6.869 -0.845,4.634 2.236,9.079 6.869,9.924 l 187.23,34.039 c 6.05,1.937 10.564,5.658 10.564,8.764 0,7.834 -1.911,11.614 -7.236,21.077 l -2.33,3.721 -65.715,-11.861 c -4.659,-0.853 -9.079,2.244 -9.916,6.878 -0.836,4.642 2.244,9.079 6.878,9.916 l 59.017,10.65 -11.853,18.978 -44.937,-3.729 c -4.693,-0.401 -8.823,3.106 -9.216,7.799 -0.384,4.693 3.106,8.823 7.799,9.207 l 36.173,2.995 -8.277,13.261 c -10.18,12.297 -24.738,13.867 -50.091,5.41 -4.489,-1.502 -9.301,0.939 -10.795,5.402 -1.493,4.471 0.93,9.301 5.402,10.795 9.916,3.302 21.001,6.204 31.949,6.204 13.355,0 26.513,-4.318 37.128,-17.485 0.213,-0.256 0.41,-0.538 0.589,-0.828 l 42.863,-68.599 c 6.153,-10.906 9.634,-17.664 9.634,-29.79 10e-4,-11.093 -9.078,-20.992 -23.133,-25.242 z" /><path
   id="path14"
   d="m 234.999,310.6914 c -4.369,-1.783 -9.344,0.324 -11.119,4.685 -1.34,3.285 -2.014,6.511 -2.014,9.591 0,4.796 1.638,9.873 4.872,15.113 1.613,2.611 4.403,4.053 7.27,4.053 1.527,0 3.081,-0.41 4.471,-1.271 4.011,-2.483 5.257,-7.74 2.782,-11.75 -2.022,-3.277 -2.33,-5.257 -2.33,-6.144 0,-0.853 0.265,-1.946 0.751,-3.166 1.777,-4.361 -0.322,-9.336 -4.683,-11.111 z"
   style="fill:#a1dcf5;fill-opacity:1" /><path
   id="path16"
   d="m 230.656,120.1684 c 4.719,0 8.533,-3.823 8.533,-8.533 0,-4.71 -3.814,-8.533 -8.533,-8.533 h -0.085 c -4.71,0 -8.491,3.823 -8.491,8.533 0,4.71 3.866,8.533 8.576,8.533 z" /></svg>